<svg xmlns="http://www.w3.org/2000/svg" width="195.248" height="30" viewBox="0 0 195.248 30">
  <g id="Group_53592" data-name="Group 53592" transform="translate(-5081 -7866.961)">
    <g id="Group_45730" data-name="Group 45730" transform="translate(5185.544 7870.011)">
      <path id="Path_84132" data-name="Path 84132" d="M-31.239-4.822a3.3,3.3,0,0,1-2.2-.746,2.615,2.615,0,0,1-.953-1.919h1.128a1.714,1.714,0,0,0,.644,1.2,2.138,2.138,0,0,0,1.4.462A2.072,2.072,0,0,0-29.7-6.416a2.047,2.047,0,0,0,.59-1.517,2.079,2.079,0,0,0-.59-1.527,2.03,2.03,0,0,0-1.508-.6,2.473,2.473,0,0,0-1.166.274,1.951,1.951,0,0,0-.8.759h-1.077l.5-5.15h5.265v1.02h-4.322l-.28,3h.025a2.08,2.08,0,0,1,.857-.65,2.994,2.994,0,0,1,1.2-.236,2.934,2.934,0,0,1,2.183.87,3.016,3.016,0,0,1,.857,2.209A3,3,0,0,1-28.881-5.7,3.269,3.269,0,0,1-31.239-4.822Zm7.694,0a2.877,2.877,0,0,1-2.5-1.278,5.965,5.965,0,0,1-.9-3.477,5.926,5.926,0,0,1,.9-3.464,2.877,2.877,0,0,1,2.489-1.284,2.865,2.865,0,0,1,2.483,1.278,5.94,5.94,0,0,1,.9,3.464,6,6,0,0,1-.892,3.48A2.861,2.861,0,0,1-23.545-4.822ZM-25.2-6.83a1.824,1.824,0,0,0,1.651,1.007,1.811,1.811,0,0,0,1.645-1,5.509,5.509,0,0,0,.58-2.751,5.436,5.436,0,0,0-.586-2.731,1.814,1.814,0,0,0-1.638-1.01,1.827,1.827,0,0,0-1.645,1.014,5.376,5.376,0,0,0-.593,2.722A5.478,5.478,0,0,0-25.2-6.83Zm7.522,1.708a.7.7,0,0,1-.516.21.7.7,0,0,1-.516-.21.7.7,0,0,1-.21-.516.7.7,0,0,1,.21-.516.7.7,0,0,1,.516-.21.7.7,0,0,1,.516.21.7.7,0,0,1,.21.516A.7.7,0,0,1-17.675-5.122Zm4.131,2.1h-.95l3.257-11.155h.95Zm9.842-1.8a3.3,3.3,0,0,1-2.2-.746,2.615,2.615,0,0,1-.953-1.919h1.128a1.714,1.714,0,0,0,.644,1.2,2.138,2.138,0,0,0,1.4.462,2.072,2.072,0,0,0,1.527-.586,2.047,2.047,0,0,0,.59-1.517,2.079,2.079,0,0,0-.59-1.527,2.03,2.03,0,0,0-1.508-.6,2.473,2.473,0,0,0-1.166.274,1.951,1.951,0,0,0-.8.759H-6.717l.5-5.15H-.949v1.02H-5.27l-.28,3h.025a2.08,2.08,0,0,1,.857-.65,2.994,2.994,0,0,1,1.2-.236,2.934,2.934,0,0,1,2.183.87A3.016,3.016,0,0,1-.426-7.965,3,3,0,0,1-1.344-5.7,3.269,3.269,0,0,1-3.7-4.822Zm5.9-.3a.7.7,0,0,1-.516.21.7.7,0,0,1-.516-.21.7.7,0,0,1-.21-.516.7.7,0,0,1,.21-.516.7.7,0,0,1,.516-.21.7.7,0,0,1,.516.21.7.7,0,0,1,.21.516A.7.7,0,0,1,2.2-5.122Zm5.106.3A2.877,2.877,0,0,1,4.811-6.1a5.965,5.965,0,0,1-.9-3.477,5.926,5.926,0,0,1,.9-3.464,2.877,2.877,0,0,1,2.489-1.284,2.865,2.865,0,0,1,2.483,1.278,5.94,5.94,0,0,1,.9,3.464A6,6,0,0,1,9.792-6.1,2.861,2.861,0,0,1,7.306-4.822ZM5.655-6.83A1.824,1.824,0,0,0,7.306-5.823a1.811,1.811,0,0,0,1.645-1,5.509,5.509,0,0,0,.58-2.751,5.436,5.436,0,0,0-.586-2.731,1.814,1.814,0,0,0-1.638-1.01,1.827,1.827,0,0,0-1.645,1.014,5.376,5.376,0,0,0-.593,2.722A5.478,5.478,0,0,0,5.655-6.83Z" transform="translate(34.963 14.326)"/>
      <g id="Group_45719" data-name="Group 45719" transform="translate(52.838 2.171)">
        <path id="Polygon_9" data-name="Polygon 9" d="M3.264,0l.77,2.244H6.527L4.51,3.631l.77,2.244L3.264,4.488,1.247,5.875l.77-2.244L0,2.244H2.493Z" fill="#ffb300"/>
        <path id="Polygon_10" data-name="Polygon 10" d="M3.264,0l.77,2.244H6.527L4.51,3.631l.77,2.244L3.264,4.488,1.247,5.875l.77-2.244L0,2.244H2.493Z" transform="translate(7.18)" fill="#ffb300"/>
        <path id="Polygon_11" data-name="Polygon 11" d="M3.264,0l.77,2.244H6.527L4.51,3.631l.77,2.244L3.264,4.488,1.247,5.875l.77-2.244L0,2.244H2.493Z" transform="translate(14.36)" fill="#ffb300"/>
        <path id="Polygon_12" data-name="Polygon 12" d="M3.264,0l.77,2.244H6.527L4.51,3.631l.77,2.244L3.264,4.488,1.247,5.875l.77-2.244L0,2.244H2.493Z" transform="translate(21.54)" fill="#ffb300"/>
        <path id="Polygon_13" data-name="Polygon 13" d="M2.937,0l.693,2.244H5.875L4.059,3.631l.693,2.244L2.937,4.488,1.122,5.875l.693-2.244L0,2.244H2.244Z" transform="translate(29.373)" fill="#ffb300"/>
      </g>
    </g>
    <g id="Group_53707" data-name="Group 53707">
      <path id="Path_84133" data-name="Path 84133" d="M-66.675-3.891a1.983,1.983,0,0,1-1.017-.26A1.881,1.881,0,0,1-68.4-4.88h-.02v.9h-.847v-7.358h.887V-8.4h.02a1.827,1.827,0,0,1,.7-.719,1.953,1.953,0,0,1,1-.26,2,2,0,0,1,1.622.75,3.039,3.039,0,0,1,.617,1.994,3.037,3.037,0,0,1-.617,2A2.017,2.017,0,0,1-66.675-3.891ZM-66.848-8.6a1.346,1.346,0,0,0-1.107.543,2.226,2.226,0,0,0-.428,1.42,2.224,2.224,0,0,0,.428,1.423,1.348,1.348,0,0,0,1.107.541A1.33,1.33,0,0,0-65.737-5.2a2.29,2.29,0,0,0,.408-1.435,2.293,2.293,0,0,0-.408-1.433A1.327,1.327,0,0,0-66.848-8.6Zm5.074,3.952a1.5,1.5,0,0,0,1.053-.39A1.252,1.252,0,0,0-60.3-6v-.433l-1.418.087a1.51,1.51,0,0,0-.829.26.719.719,0,0,0-.293.6.735.735,0,0,0,.291.607A1.207,1.207,0,0,0-61.775-4.646Zm-.2.755a1.836,1.836,0,0,1-1.277-.439,1.477,1.477,0,0,1-.487-1.152,1.334,1.334,0,0,1,.5-1.091,2.42,2.42,0,0,1,1.42-.459l1.52-.087v-.444a.97.97,0,0,0-.306-.76,1.236,1.236,0,0,0-.857-.275,1.4,1.4,0,0,0-.821.222.983.983,0,0,0-.4.62h-.857a1.568,1.568,0,0,1,.614-1.165,2.3,2.3,0,0,1,1.486-.456,2.2,2.2,0,0,1,1.481.469,1.573,1.573,0,0,1,.548,1.26v3.666h-.841V-4.9h-.02a1.835,1.835,0,0,1-.7.729A1.925,1.925,0,0,1-61.973-3.891Zm3.6-3.932a1.363,1.363,0,0,1,.553-1.119,2.234,2.234,0,0,1,1.425-.436,2.112,2.112,0,0,1,1.367.439,1.457,1.457,0,0,1,.576,1.112H-55.3a.842.842,0,0,0-.344-.607,1.29,1.29,0,0,0-.783-.219,1.29,1.29,0,0,0-.78.217.673.673,0,0,0-.3.569q0,.541.882.765l.821.2a2.5,2.5,0,0,1,1.13.528,1.22,1.22,0,0,1,.329.91,1.356,1.356,0,0,1-.592,1.135,2.475,2.475,0,0,1-1.52.441,2.287,2.287,0,0,1-1.43-.431,1.576,1.576,0,0,1-.635-1.14h.887q.148.847,1.234.847a1.5,1.5,0,0,0,.849-.212.659.659,0,0,0,.314-.574.582.582,0,0,0-.186-.454,1.548,1.548,0,0,0-.63-.286l-.933-.24Q-58.373-6.736-58.373-7.823Zm7.078-.785a1.352,1.352,0,0,0-1.022.426,1.678,1.678,0,0,0-.446,1.094h2.881a1.617,1.617,0,0,0-.4-1.1A1.305,1.305,0,0,0-51.3-8.608ZM-49.9-5.5h.872a1.762,1.762,0,0,1-.732,1.158,2.416,2.416,0,0,1-1.476.454,2.272,2.272,0,0,1-1.79-.734,2.885,2.885,0,0,1-.653-1.989,2.961,2.961,0,0,1,.655-2,2.191,2.191,0,0,1,1.747-.76,2.123,2.123,0,0,1,1.693.719,2.844,2.844,0,0,1,.622,1.928v.337h-3.8v.051a1.747,1.747,0,0,0,.418,1.224,1.456,1.456,0,0,0,1.132.459,1.525,1.525,0,0,0,.852-.229A1.076,1.076,0,0,0-49.9-5.5Zm3.84,1.611a2.036,2.036,0,0,1-1.645-.75,3.014,3.014,0,0,1-.625-1.994,3.025,3.025,0,0,1,.622-1.991,2.01,2.01,0,0,1,1.627-.752,1.979,1.979,0,0,1,1,.255,1.754,1.754,0,0,1,.683.7h.02v-2.917h.887v7.358h-.847v-.9h-.015a1.915,1.915,0,0,1-.7.727A1.944,1.944,0,0,1-46.063-3.891Zm.168-4.707a1.339,1.339,0,0,0-1.117.533,2.275,2.275,0,0,0-.413,1.43A2.272,2.272,0,0,0-47.012-5.2a1.341,1.341,0,0,0,1.117.53,1.333,1.333,0,0,0,1.107-.538,2.259,2.259,0,0,0,.418-1.425,2.25,2.25,0,0,0-.421-1.425A1.335,1.335,0,0,0-45.895-8.6Zm7.945,4.707a2.293,2.293,0,0,1-1.785-.742,2.866,2.866,0,0,1-.673-2,2.866,2.866,0,0,1,.673-2,2.293,2.293,0,0,1,1.785-.742,2.288,2.288,0,0,1,1.78.742,2.866,2.866,0,0,1,.673,2,2.868,2.868,0,0,1-.673,2A2.284,2.284,0,0,1-37.95-3.891Zm-1.135-1.3a1.383,1.383,0,0,0,1.135.52,1.379,1.379,0,0,0,1.132-.518A2.243,2.243,0,0,0-36.4-6.634a2.243,2.243,0,0,0-.418-1.446A1.379,1.379,0,0,0-37.95-8.6a1.383,1.383,0,0,0-1.135.52,2.235,2.235,0,0,0-.421,1.443A2.235,2.235,0,0,0-39.085-5.191Zm4.48,1.209v-5.3h.836v.847h.02a1.664,1.664,0,0,1,.658-.691,2.016,2.016,0,0,1,1.025-.247,1.751,1.751,0,0,1,1.351.523,2.022,2.022,0,0,1,.484,1.43v3.442h-.887V-7.267a1.426,1.426,0,0,0-.306-.987,1.167,1.167,0,0,0-.913-.339,1.3,1.3,0,0,0-1,.408A1.529,1.529,0,0,0-33.717-7.1v3.121Zm10.326.127a2.528,2.528,0,0,1-1.458-.431,2.753,2.753,0,0,1-.974-1.226,5.084,5.084,0,0,1-.362-2.024,4.855,4.855,0,0,1,.752-2.9,2.451,2.451,0,0,1,2.1-1.035,2.515,2.515,0,0,1,1.6.52,2.289,2.289,0,0,1,.841,1.387h-.933a1.471,1.471,0,0,0-.561-.8,1.6,1.6,0,0,0-.959-.3,1.6,1.6,0,0,0-1.428.79,4.35,4.35,0,0,0-.53,2.259h.015a1.932,1.932,0,0,1,.811-.867A2.429,2.429,0,0,1-24.115-8.8a2.373,2.373,0,0,1,1.747.694,2.354,2.354,0,0,1,.7,1.739,2.4,2.4,0,0,1-.737,1.8A2.581,2.581,0,0,1-24.278-3.855Zm-1.2-1.308a1.611,1.611,0,0,0,1.191.492A1.633,1.633,0,0,0-23.1-5.156a1.6,1.6,0,0,0,.49-1.183,1.608,1.608,0,0,0-.469-1.191A1.628,1.628,0,0,0-24.273-8a1.676,1.676,0,0,0-1.211.464,1.553,1.553,0,0,0-.482,1.168A1.643,1.643,0,0,0-25.479-5.163Zm7.453,1.308a2.528,2.528,0,0,1-1.458-.431,2.753,2.753,0,0,1-.974-1.226,5.084,5.084,0,0,1-.362-2.024,4.855,4.855,0,0,1,.752-2.9,2.451,2.451,0,0,1,2.1-1.035,2.515,2.515,0,0,1,1.6.52,2.289,2.289,0,0,1,.841,1.387h-.933a1.471,1.471,0,0,0-.561-.8,1.6,1.6,0,0,0-.959-.3,1.6,1.6,0,0,0-1.428.79,4.35,4.35,0,0,0-.53,2.259h.015a1.932,1.932,0,0,1,.811-.867A2.429,2.429,0,0,1-17.863-8.8a2.373,2.373,0,0,1,1.747.694,2.354,2.354,0,0,1,.7,1.739,2.4,2.4,0,0,1-.737,1.8A2.581,2.581,0,0,1-18.026-3.855Zm-1.2-1.308a1.611,1.611,0,0,0,1.191.492,1.633,1.633,0,0,0,1.193-.484,1.6,1.6,0,0,0,.49-1.183,1.608,1.608,0,0,0-.469-1.191A1.628,1.628,0,0,0-18.021-8a1.676,1.676,0,0,0-1.211.464,1.553,1.553,0,0,0-.482,1.168A1.643,1.643,0,0,0-19.227-5.163Zm7.764-1.308v2.336h-.826V-6.471h-2.177V-7.3h2.177V-9.577h.826V-7.3h2.177v.826Zm9.873-1.076h-.867A1.343,1.343,0,0,0-2.909-8.3a1.353,1.353,0,0,0-.905-.3,1.356,1.356,0,0,0-1.117.533,2.236,2.236,0,0,0-.423,1.43A2.22,2.22,0,0,0-4.929-5.2,1.376,1.376,0,0,0-3.8-4.671a1.412,1.412,0,0,0,.885-.268,1.3,1.3,0,0,0,.467-.752h.872a1.935,1.935,0,0,1-.716,1.3,2.311,2.311,0,0,1-1.512.5,2.285,2.285,0,0,1-1.78-.737,2.876,2.876,0,0,1-.668-2.007,2.884,2.884,0,0,1,.668-2,2.258,2.258,0,0,1,1.77-.747,2.216,2.216,0,0,1,1.543.535A2.025,2.025,0,0,1-1.591-7.547Zm.872,3.565v-7.358H.168v7.358Zm2.132,0v-5.3H2.3v5.3Zm.444-6.2a.529.529,0,0,1-.388-.163.529.529,0,0,1-.163-.388.527.527,0,0,1,.163-.39.534.534,0,0,1,.388-.161.54.54,0,0,1,.393.161.527.527,0,0,1,.163.39.529.529,0,0,1-.163.388A.535.535,0,0,1,1.856-10.179ZM5.625-8.608A1.352,1.352,0,0,0,4.6-8.182a1.678,1.678,0,0,0-.446,1.094H7.037a1.617,1.617,0,0,0-.4-1.1A1.305,1.305,0,0,0,5.625-8.608ZM7.017-5.5h.872a1.762,1.762,0,0,1-.732,1.158,2.416,2.416,0,0,1-1.476.454,2.272,2.272,0,0,1-1.79-.734,2.885,2.885,0,0,1-.653-1.989,2.961,2.961,0,0,1,.655-2,2.191,2.191,0,0,1,1.747-.76,2.123,2.123,0,0,1,1.693.719,2.844,2.844,0,0,1,.622,1.928v.337h-3.8v.051A1.747,1.747,0,0,0,4.569-5.12,1.456,1.456,0,0,0,5.7-4.661a1.525,1.525,0,0,0,.852-.229A1.076,1.076,0,0,0,7.017-5.5Zm1.831,1.52v-5.3h.836v.847H9.7a1.664,1.664,0,0,1,.658-.691,2.016,2.016,0,0,1,1.025-.247,1.751,1.751,0,0,1,1.351.523,2.022,2.022,0,0,1,.484,1.43v3.442h-.887V-7.267a1.426,1.426,0,0,0-.306-.987,1.167,1.167,0,0,0-.913-.339,1.3,1.3,0,0,0-1,.408A1.529,1.529,0,0,0,9.735-7.1v3.121Zm5.788-6.583h.887v1.28h1.03v.729h-1.03v3.151a.765.765,0,0,0,.158.533.651.651,0,0,0,.5.171,2.271,2.271,0,0,0,.367-.025v.745a2.722,2.722,0,0,1-.561.041,1.392,1.392,0,0,1-1.04-.326,1.556,1.556,0,0,1-.311-1.091v-3.2h-.79v-.729h.79ZM17.4-7.823a1.363,1.363,0,0,1,.553-1.119,2.234,2.234,0,0,1,1.425-.436,2.112,2.112,0,0,1,1.367.439,1.457,1.457,0,0,1,.576,1.112h-.847a.842.842,0,0,0-.344-.607,1.29,1.29,0,0,0-.783-.219,1.29,1.29,0,0,0-.78.217.673.673,0,0,0-.3.569q0,.541.882.765l.821.2a2.5,2.5,0,0,1,1.13.528,1.22,1.22,0,0,1,.329.91,1.356,1.356,0,0,1-.592,1.135,2.475,2.475,0,0,1-1.52.441,2.287,2.287,0,0,1-1.43-.431,1.577,1.577,0,0,1-.635-1.14h.887q.148.847,1.234.847a1.5,1.5,0,0,0,.849-.212.659.659,0,0,0,.314-.574.581.581,0,0,0-.186-.454,1.548,1.548,0,0,0-.63-.286L18.8-6.38Q17.4-6.736,17.4-7.823Z" transform="translate(5254.81 7898.332)" opacity="0.5"/>
      <g id="Layer_x0020_1" transform="translate(5081 7866.96)">
        <path id="Path_84151" data-name="Path 84151" d="M22.5,86041.594H11.819v3.172h7.572c-.374,4.445-4.071,6.336-7.559,6.336a8.462,8.462,0,0,1,.01-16.922,8.22,8.22,0,0,1,5.709,2.289l2.218-2.3a11.273,11.273,0,0,0-8.04-3.172,11.642,11.642,0,1,0,.169,23.281c6.231,0,10.792-4.273,10.792-10.586a9.541,9.541,0,0,0-.193-2.1Z" transform="translate(0 -86031)" fill="#176bef" fill-rule="evenodd"/>
        <path id="Path_84152" data-name="Path 84152" d="M66375.563,109256.938a4.551,4.551,0,1,1-4.281,4.523A4.3,4.3,0,0,1,66375.563,109256.938Zm-.047-2.937a7.481,7.481,0,1,0,7.508,7.5A7.39,7.39,0,0,0,66375.516,109254Z" transform="translate(-66344.281 -109245.703)" fill="#ff3e30" fill-rule="evenodd"/>
        <path id="Path_84153" data-name="Path 84153" d="M112137.563,109256.938a4.551,4.551,0,1,1-4.281,4.523A4.3,4.3,0,0,1,112137.563,109256.938Zm-.047-2.937a7.481,7.481,0,1,0,7.516,7.5A7.39,7.39,0,0,0,112137.516,109254Z" transform="translate(-112089.922 -109245.703)" fill="#f7b529" fill-rule="evenodd"/>
        <path id="Path_84154" data-name="Path 84154" d="M157969.469,109278.938a4.232,4.232,0,0,1,4,4.555c0,2.922-2.016,4.531-4.047,4.531a4.244,4.244,0,0,1-4.125-4.508A4.3,4.3,0,0,1,157969.469,109278.938Zm-.281-2.937a7.492,7.492,0,0,0-.078,14.969,4.962,4.962,0,0,0,4.109-1.82v1.477a3.761,3.761,0,0,1-3.937,4.125,4.147,4.147,0,0,1-3.828-2.664l-2.875,1.2a7.2,7.2,0,0,0,6.734,4.406c3.984,0,7.031-2.523,7.031-7.8v-13.437h-3.125v1.266A5.3,5.3,0,0,0,157969.188,109276Z" transform="translate(-157905.547 -109267.695)" fill="#176bef" fill-rule="evenodd"/>
        <path id="Path_84155" data-name="Path 84155" d="M217620.109,109227.883a2.987,2.987,0,0,1,2.766,1.6l-6.7,2.8A4.15,4.15,0,0,1,217620.109,109227.883Zm-.141-2.883c-3.781,0-6.969,3.023-6.969,7.477a7.235,7.235,0,0,0,7.344,7.508,7.63,7.63,0,0,0,6.266-3.281l-2.594-1.727a4.187,4.187,0,0,1-3.672,2.063,3.829,3.829,0,0,1-3.656-2.266l10.031-4.164-.531-1.219a6.757,6.757,0,0,0-6.219-4.383Z" transform="translate(-217535.219 -109216.711)" fill="#ff3e30" fill-rule="evenodd"/>
        <path id="Path_84156" data-name="Path 84156" d="M204233,88217.047h3.3V88195h-3.3Z" transform="translate(-204160 -88194.227)" fill="#179c52" fill-rule="evenodd"/>
      </g>
    </g>
  </g>
</svg>
