<svg xmlns="http://www.w3.org/2000/svg" width="226.17" height="30" viewBox="0 0 226.17 30">
  <g id="Group_53708" data-name="Group 53708" transform="translate(-75 -5292.805)">
    <g id="trustpilot-1" transform="translate(75 5292.805)">
      <path id="Path_3125" data-name="Path 3125" d="M178.12,300.7h12.362V303h-4.868v12.974h-2.668V303H178.1Zm11.833,4.216h2.281v2.138h.041a2.687,2.687,0,0,1,.428-.876,3.386,3.386,0,0,1,.754-.774,3.334,3.334,0,0,1,.978-.57,2.845,2.845,0,0,1,1.079-.224c.285,0,.489.02.591.02a1.781,1.781,0,0,0,.326.041v2.342a4.123,4.123,0,0,0-.53-.081,4.637,4.637,0,0,0-.53-.041,2.827,2.827,0,0,0-1.161.244,2.944,2.944,0,0,0-.957.713,3.863,3.863,0,0,0-.652,1.181,4.984,4.984,0,0,0-.244,1.629v5.255h-2.444Zm17.678,11.059h-2.4v-1.548h-.041a3.413,3.413,0,0,1-1.344,1.344,3.548,3.548,0,0,1-1.813.509,4.033,4.033,0,0,1-3.157-1.079,4.722,4.722,0,0,1-.978-3.259v-7.026h2.444V311.7a2.89,2.89,0,0,0,.57,2.057,2.011,2.011,0,0,0,1.568.611,3,3,0,0,0,1.283-.244,2.213,2.213,0,0,0,.835-.631,2.477,2.477,0,0,0,.468-.957,4.522,4.522,0,0,0,.143-1.2v-6.415h2.444v11.059Zm4.155-3.544a1.922,1.922,0,0,0,.815,1.507,3.207,3.207,0,0,0,1.69.428,5.6,5.6,0,0,0,.774-.061,3.41,3.41,0,0,0,.815-.2,1.433,1.433,0,0,0,.631-.448,1.043,1.043,0,0,0,.224-.754,1.1,1.1,0,0,0-.346-.774,2.885,2.885,0,0,0-.815-.489,7.064,7.064,0,0,0-1.141-.306c-.428-.081-.855-.183-1.3-.285s-.9-.224-1.324-.367a3.793,3.793,0,0,1-1.141-.591,2.54,2.54,0,0,1-.794-.937,2.928,2.928,0,0,1-.305-1.405,2.409,2.409,0,0,1,.448-1.507,3.249,3.249,0,0,1,1.12-.978,5.083,5.083,0,0,1,1.507-.53,8.626,8.626,0,0,1,1.568-.143,7.007,7.007,0,0,1,1.629.183,4.119,4.119,0,0,1,1.405.591,3.227,3.227,0,0,1,1.039,1.059,3.668,3.668,0,0,1,.53,1.568h-2.546a1.568,1.568,0,0,0-.794-1.181,3.28,3.28,0,0,0-1.446-.305c-.163,0-.387.02-.611.041a3.6,3.6,0,0,0-.672.163,1.593,1.593,0,0,0-.53.346.815.815,0,0,0-.224.591.9.9,0,0,0,.306.713,2.768,2.768,0,0,0,.815.468,7.058,7.058,0,0,0,1.141.305c.428.081.876.183,1.324.285s.876.224,1.3.367a3.568,3.568,0,0,1,1.141.591,2.937,2.937,0,0,1,.815.917,2.815,2.815,0,0,1,.306,1.365,2.968,2.968,0,0,1-.448,1.67,3.808,3.808,0,0,1-1.161,1.12,5.755,5.755,0,0,1-1.589.631,8.533,8.533,0,0,1-1.731.2,7.3,7.3,0,0,1-1.935-.244,4.927,4.927,0,0,1-1.548-.713,3.419,3.419,0,0,1-1.018-1.2,3.924,3.924,0,0,1-.407-1.711h2.464v.02Zm8.045-7.515h1.853v-3.34h2.444v3.32h2.2v1.813h-2.2v5.906a6.261,6.261,0,0,0,.041.672,1.411,1.411,0,0,0,.143.468.8.8,0,0,0,.346.285,1.817,1.817,0,0,0,.652.1,4.259,4.259,0,0,0,.509-.02,4.426,4.426,0,0,0,.509-.081v1.894c-.265.041-.53.061-.794.081a5.063,5.063,0,0,1-.794.041,5.264,5.264,0,0,1-1.548-.183,2.224,2.224,0,0,1-.917-.53,1.893,1.893,0,0,1-.448-.876,6.951,6.951,0,0,1-.143-1.222v-6.517h-1.853v-1.813Zm8.208,0h2.3v1.507h.041a3.025,3.025,0,0,1,1.426-1.385,4.618,4.618,0,0,1,2-.428,5.019,5.019,0,0,1,2.281.468,4.279,4.279,0,0,1,1.609,1.263,5.267,5.267,0,0,1,.957,1.874,8.227,8.227,0,0,1,.041,4.44,5.992,5.992,0,0,1-.876,1.853,4.332,4.332,0,0,1-1.487,1.283,4.4,4.4,0,0,1-2.118.489,6.213,6.213,0,0,1-1.059-.1,4.505,4.505,0,0,1-1.018-.306,3.651,3.651,0,0,1-.9-.55,3.1,3.1,0,0,1-.692-.774H230.5v5.519h-2.444V304.916Zm8.534,5.54a4.962,4.962,0,0,0-.2-1.446,3.688,3.688,0,0,0-.591-1.242,3.258,3.258,0,0,0-.957-.876,2.605,2.605,0,0,0-1.324-.326,2.705,2.705,0,0,0-2.322,1.059,4.824,4.824,0,0,0-.774,2.851,5.275,5.275,0,0,0,.2,1.548,3.448,3.448,0,0,0,.611,1.222,2.911,2.911,0,0,0,.978.815,2.762,2.762,0,0,0,1.324.306,2.709,2.709,0,0,0,1.405-.346,3.282,3.282,0,0,0,.957-.876,3.583,3.583,0,0,0,.53-1.242A6.994,6.994,0,0,0,236.572,310.456Zm4.3-9.756h2.444V303H240.87Zm0,4.216h2.444v11.059H240.87Zm4.623-4.216h2.444v15.275h-2.444Zm9.9,15.58a5.82,5.82,0,0,1-2.363-.448,5.362,5.362,0,0,1-1.752-1.2,5.232,5.232,0,0,1-1.079-1.853,7.24,7.24,0,0,1-.387-2.342,6.614,6.614,0,0,1,.387-2.322,5.417,5.417,0,0,1,1.079-1.853,4.885,4.885,0,0,1,1.752-1.2,6.182,6.182,0,0,1,2.363-.448,5.82,5.82,0,0,1,2.363.448,5.069,5.069,0,0,1,1.751,1.2,5.232,5.232,0,0,1,1.079,1.853,7.116,7.116,0,0,1,.387,2.322,6.652,6.652,0,0,1-.387,2.342,5.765,5.765,0,0,1-1.079,1.853,4.885,4.885,0,0,1-1.751,1.2A6.107,6.107,0,0,1,255.391,316.28Zm0-1.935A2.816,2.816,0,0,0,256.8,314a2.947,2.947,0,0,0,.978-.9,3.839,3.839,0,0,0,.57-1.242,5.556,5.556,0,0,0,0-2.831,3.652,3.652,0,0,0-.57-1.242,3.093,3.093,0,0,0-.978-.876,2.872,2.872,0,0,0-1.405-.346,2.816,2.816,0,0,0-1.405.346,3.118,3.118,0,0,0-.978.876,3.651,3.651,0,0,0-.57,1.242,5.556,5.556,0,0,0,0,2.831,3.651,3.651,0,0,0,.57,1.242,3.159,3.159,0,0,0,.978.9A2.667,2.667,0,0,0,255.391,314.346Zm6.314-9.43h1.853v-3.34H266v3.32h2.2v1.813H266v5.906a6.27,6.27,0,0,0,.041.672,1.413,1.413,0,0,0,.143.468.8.8,0,0,0,.346.285,1.818,1.818,0,0,0,.652.1,4.26,4.26,0,0,0,.509-.02,4.425,4.425,0,0,0,.509-.081v1.894c-.265.041-.529.061-.794.081a5.063,5.063,0,0,1-.794.041,5.264,5.264,0,0,1-1.548-.183,2.224,2.224,0,0,1-.916-.53,1.893,1.893,0,0,1-.448-.876,6.948,6.948,0,0,1-.143-1.222v-6.517H261.7v-1.813Z" transform="translate(-146.002 -290.069)"/>
      <path id="Path_3126" data-name="Path 3126" d="M49.767,259.131H38.585L35.144,248.5l-3.462,10.631-11.181-.02,9.043,6.578L26.08,276.321l9.043-6.578,9.043,6.578-3.442-10.631Z" transform="translate(-20.5 -248.5)" fill="#00b67a"/>
      <path id="Path_3127" data-name="Path 3127" d="M98.754,335.3l-.774-2.4-5.58,4.053Z" transform="translate(-77.756 -315.711)" fill="#005128"/>
    </g>
    <g id="Group_45729" data-name="Group 45729" transform="translate(210.319 5295.849)">
      <path id="Path_84136" data-name="Path 84136" d="M-31.067-4.978V-6.891h-4.621V-7.93q.593-1.1,1.508-2.518t2.527-3.729h1.7V-7.9h1.3v1.007h-1.3v1.912Zm-3.487-2.945V-7.9h3.487V-13.22h-.019Q-33.5-9.772-34.554-7.923Zm8.44,2.8a.7.7,0,0,1-.516.21.7.7,0,0,1-.516-.21.7.7,0,0,1-.21-.516.7.7,0,0,1,.21-.516.7.7,0,0,1,.516-.21.7.7,0,0,1,.516.21.7.7,0,0,1,.21.516A.7.7,0,0,1-26.114-5.125Zm4.94.3a3.17,3.17,0,0,1-2.008-.65,2.8,2.8,0,0,1-1.045-1.734h1.167a1.87,1.87,0,0,0,.7,1,1.97,1.97,0,0,0,1.2.379,2,2,0,0,0,1.782-1,5.432,5.432,0,0,0,.66-2.833h-.019a2.319,2.319,0,0,1-.991,1.093,3.05,3.05,0,0,1-1.578.411,2.967,2.967,0,0,1-2.183-.867,2.943,2.943,0,0,1-.87-2.174,3,3,0,0,1,.921-2.253,3.227,3.227,0,0,1,2.336-.889,3.17,3.17,0,0,1,1.829.539,3.405,3.405,0,0,1,1.211,1.527,6.373,6.373,0,0,1,.453,2.537,6.069,6.069,0,0,1-.937,3.617A3.059,3.059,0,0,1-21.174-4.825Zm.064-4.335a2.106,2.106,0,0,0,1.517-.58,1.936,1.936,0,0,0,.606-1.46,2.032,2.032,0,0,0-.609-1.495,2.032,2.032,0,0,0-1.495-.609,2.054,2.054,0,0,0-1.5.6,1.983,1.983,0,0,0-.612,1.469,2,2,0,0,0,.593,1.485A2.042,2.042,0,0,0-21.11-9.16ZM-13.4-3.021h-.95L-11.1-14.177h.95Zm9.842-1.8a3.3,3.3,0,0,1-2.2-.746A2.615,2.615,0,0,1-6.717-7.49h1.128a1.714,1.714,0,0,0,.644,1.2,2.138,2.138,0,0,0,1.4.462,2.072,2.072,0,0,0,1.527-.586,2.047,2.047,0,0,0,.59-1.517,2.079,2.079,0,0,0-.59-1.527,2.03,2.03,0,0,0-1.508-.6A2.473,2.473,0,0,0-4.7-9.785a1.951,1.951,0,0,0-.8.759H-6.577l.5-5.15H-.808v1.02H-5.13l-.28,3h.025a2.08,2.08,0,0,1,.857-.65,2.994,2.994,0,0,1,1.2-.236,2.934,2.934,0,0,1,2.183.87A3.016,3.016,0,0,1-.285-7.968,3,3,0,0,1-1.2-5.705,3.269,3.269,0,0,1-3.562-4.825Zm5.9-.3a.7.7,0,0,1-.516.21.7.7,0,0,1-.516-.21.7.7,0,0,1-.21-.516.7.7,0,0,1,.21-.516.7.7,0,0,1,.516-.21.7.7,0,0,1,.516.21.7.7,0,0,1,.21.516A.7.7,0,0,1,2.341-5.125Zm5.106.3A2.877,2.877,0,0,1,4.951-6.1a5.965,5.965,0,0,1-.9-3.477,5.926,5.926,0,0,1,.9-3.464A2.877,2.877,0,0,1,7.447-14.33,2.865,2.865,0,0,1,9.93-13.052a5.94,5.94,0,0,1,.9,3.464,6,6,0,0,1-.892,3.48A2.861,2.861,0,0,1,7.447-4.825ZM5.8-6.833A1.824,1.824,0,0,0,7.447-5.826a1.811,1.811,0,0,0,1.645-1,5.51,5.51,0,0,0,.58-2.751,5.436,5.436,0,0,0-.586-2.731,1.814,1.814,0,0,0-1.638-1.01A1.827,1.827,0,0,0,5.8-12.309a5.376,5.376,0,0,0-.593,2.722A5.478,5.478,0,0,0,5.8-6.833Z" transform="translate(35.688 14.336)"/>
      <path id="Path_84137" data-name="Path 84137" d="M-66.476-3.888a1.983,1.983,0,0,1-1.017-.26,1.881,1.881,0,0,1-.706-.729h-.02v.9h-.847v-7.359h.887V-8.4h.02a1.827,1.827,0,0,1,.7-.719,1.953,1.953,0,0,1,1-.26,2,2,0,0,1,1.622.75,3.039,3.039,0,0,1,.617,1.994,3.037,3.037,0,0,1-.617,2A2.017,2.017,0,0,1-66.476-3.888ZM-66.649-8.6a1.346,1.346,0,0,0-1.107.543,2.226,2.226,0,0,0-.428,1.42,2.224,2.224,0,0,0,.428,1.423,1.348,1.348,0,0,0,1.107.541A1.33,1.33,0,0,0-65.538-5.2a2.291,2.291,0,0,0,.408-1.436,2.293,2.293,0,0,0-.408-1.433A1.327,1.327,0,0,0-66.649-8.6Zm5.074,3.952a1.5,1.5,0,0,0,1.053-.39,1.252,1.252,0,0,0,.426-.961v-.433l-1.418.087a1.51,1.51,0,0,0-.829.26.719.719,0,0,0-.293.6.735.735,0,0,0,.291.607A1.207,1.207,0,0,0-61.575-4.643Zm-.2.755a1.836,1.836,0,0,1-1.277-.439,1.477,1.477,0,0,1-.487-1.152,1.334,1.334,0,0,1,.5-1.091,2.42,2.42,0,0,1,1.42-.459l1.52-.087V-7.56a.97.97,0,0,0-.306-.76,1.236,1.236,0,0,0-.857-.275,1.4,1.4,0,0,0-.821.222.983.983,0,0,0-.4.62h-.857a1.568,1.568,0,0,1,.614-1.165,2.3,2.3,0,0,1,1.487-.456,2.2,2.2,0,0,1,1.481.469,1.573,1.573,0,0,1,.548,1.26V-3.98h-.841v-.913h-.02a1.835,1.835,0,0,1-.7.729A1.925,1.925,0,0,1-61.774-3.888Zm3.6-3.932a1.363,1.363,0,0,1,.553-1.119A2.234,2.234,0,0,1-56.2-9.375a2.112,2.112,0,0,1,1.367.439,1.457,1.457,0,0,1,.576,1.112H-55.1a.842.842,0,0,0-.344-.607,1.29,1.29,0,0,0-.783-.219,1.29,1.29,0,0,0-.78.217.673.673,0,0,0-.3.569q0,.541.882.765l.821.2a2.5,2.5,0,0,1,1.13.528,1.22,1.22,0,0,1,.329.91,1.356,1.356,0,0,1-.592,1.135,2.475,2.475,0,0,1-1.52.441,2.287,2.287,0,0,1-1.43-.431,1.577,1.577,0,0,1-.635-1.14h.887q.148.847,1.234.847a1.5,1.5,0,0,0,.849-.212.659.659,0,0,0,.314-.574.581.581,0,0,0-.186-.454,1.548,1.548,0,0,0-.63-.286l-.933-.24Q-58.174-6.734-58.174-7.82Zm7.078-.785a1.352,1.352,0,0,0-1.022.426,1.678,1.678,0,0,0-.446,1.094h2.881a1.618,1.618,0,0,0-.4-1.1A1.305,1.305,0,0,0-51.1-8.605ZM-49.7-5.5h.872a1.762,1.762,0,0,1-.732,1.158,2.416,2.416,0,0,1-1.476.454,2.272,2.272,0,0,1-1.79-.734,2.885,2.885,0,0,1-.653-1.989,2.961,2.961,0,0,1,.655-2,2.191,2.191,0,0,1,1.747-.76,2.123,2.123,0,0,1,1.693.719,2.844,2.844,0,0,1,.622,1.928v.337h-3.8v.051a1.747,1.747,0,0,0,.418,1.224,1.456,1.456,0,0,0,1.132.459,1.525,1.525,0,0,0,.852-.229A1.076,1.076,0,0,0-49.7-5.5Zm3.84,1.611a2.036,2.036,0,0,1-1.645-.75,3.014,3.014,0,0,1-.625-1.994,3.025,3.025,0,0,1,.622-1.991,2.01,2.01,0,0,1,1.627-.752,1.979,1.979,0,0,1,1,.255,1.754,1.754,0,0,1,.683.7h.02v-2.917h.887V-3.98h-.847v-.9h-.015a1.915,1.915,0,0,1-.7.727A1.944,1.944,0,0,1-45.864-3.888ZM-45.7-8.6a1.339,1.339,0,0,0-1.117.533,2.275,2.275,0,0,0-.413,1.43A2.272,2.272,0,0,0-46.812-5.2a1.341,1.341,0,0,0,1.117.53,1.333,1.333,0,0,0,1.107-.538,2.259,2.259,0,0,0,.418-1.425,2.25,2.25,0,0,0-.421-1.425A1.335,1.335,0,0,0-45.7-8.6Zm7.945,4.707a2.294,2.294,0,0,1-1.785-.742,2.866,2.866,0,0,1-.673-2,2.866,2.866,0,0,1,.673-2,2.294,2.294,0,0,1,1.785-.742,2.288,2.288,0,0,1,1.78.742,2.866,2.866,0,0,1,.673,2,2.868,2.868,0,0,1-.673,2A2.284,2.284,0,0,1-37.75-3.888Zm-1.135-1.3a1.383,1.383,0,0,0,1.135.52,1.379,1.379,0,0,0,1.132-.518A2.243,2.243,0,0,0-36.2-6.632a2.243,2.243,0,0,0-.418-1.446A1.379,1.379,0,0,0-37.75-8.6a1.383,1.383,0,0,0-1.135.52,2.235,2.235,0,0,0-.421,1.443A2.235,2.235,0,0,0-38.885-5.189Zm4.48,1.209v-5.3h.836v.847h.02a1.664,1.664,0,0,1,.658-.691,2.016,2.016,0,0,1,1.025-.247,1.751,1.751,0,0,1,1.351.523,2.022,2.022,0,0,1,.484,1.43V-3.98h-.887V-7.264a1.426,1.426,0,0,0-.306-.987,1.167,1.167,0,0,0-.913-.339,1.3,1.3,0,0,0-1,.408A1.529,1.529,0,0,0-33.518-7.1V-3.98Zm7.619-5.237a2.091,2.091,0,0,1,.694-1.6,2.459,2.459,0,0,1,1.734-.64,2.473,2.473,0,0,1,1.668.586,1.82,1.82,0,0,1,.683,1.433,2.273,2.273,0,0,1-.337,1.178A9.333,9.333,0,0,1-23.61-6.739l-1.861,1.923v.02h3.585v.816h-4.855v-.632l2.591-2.728a8.034,8.034,0,0,0,.982-1.183,1.644,1.644,0,0,0,.242-.862,1.157,1.157,0,0,0-.426-.9,1.515,1.515,0,0,0-1.033-.372,1.506,1.506,0,0,0-1.081.413,1.364,1.364,0,0,0-.433,1.03v.005h-.887Zm8.531,5.36a2.3,2.3,0,0,1-2-1.022,4.772,4.772,0,0,1-.716-2.782,4.741,4.741,0,0,1,.722-2.772,2.3,2.3,0,0,1,1.991-1.028,2.292,2.292,0,0,1,1.986,1.022,4.752,4.752,0,0,1,.716,2.772,4.8,4.8,0,0,1-.714,2.784A2.289,2.289,0,0,1-18.255-3.858Zm-1.321-1.606a1.459,1.459,0,0,0,1.321.806,1.449,1.449,0,0,0,1.316-.8,4.408,4.408,0,0,0,.464-2.2,4.349,4.349,0,0,0-.469-2.185,1.451,1.451,0,0,0-1.311-.808,1.461,1.461,0,0,0-1.316.811,4.3,4.3,0,0,0-.474,2.177A4.383,4.383,0,0,0-19.576-5.464Zm8.052-1v2.336h-.826V-6.469h-2.177v-.826h2.177V-9.574h.826v2.279h2.177v.826Zm9.873-1.076h-.867A1.343,1.343,0,0,0-2.969-8.3a1.353,1.353,0,0,0-.905-.3,1.356,1.356,0,0,0-1.117.533,2.236,2.236,0,0,0-.423,1.43,2.22,2.22,0,0,0,.426,1.438,1.376,1.376,0,0,0,1.124.525,1.412,1.412,0,0,0,.885-.268,1.3,1.3,0,0,0,.467-.752h.872a1.935,1.935,0,0,1-.716,1.3,2.311,2.311,0,0,1-1.512.5,2.285,2.285,0,0,1-1.78-.737,2.876,2.876,0,0,1-.668-2.007,2.884,2.884,0,0,1,.668-2,2.258,2.258,0,0,1,1.77-.747,2.216,2.216,0,0,1,1.543.535A2.025,2.025,0,0,1-1.651-7.545ZM-.779-3.98v-7.359H.108V-3.98Zm2.132,0v-5.3H2.24v5.3Zm.444-6.2a.529.529,0,0,1-.388-.163.529.529,0,0,1-.163-.388.527.527,0,0,1,.163-.39.534.534,0,0,1,.388-.161.54.54,0,0,1,.393.161.527.527,0,0,1,.163.39.529.529,0,0,1-.163.388A.535.535,0,0,1,1.8-10.176ZM5.565-8.605a1.352,1.352,0,0,0-1.022.426A1.678,1.678,0,0,0,4.1-7.086H6.977a1.618,1.618,0,0,0-.4-1.1A1.305,1.305,0,0,0,5.565-8.605ZM6.957-5.5h.872A1.762,1.762,0,0,1,7.1-4.342a2.416,2.416,0,0,1-1.476.454,2.272,2.272,0,0,1-1.79-.734,2.885,2.885,0,0,1-.653-1.989,2.961,2.961,0,0,1,.655-2,2.191,2.191,0,0,1,1.747-.76,2.123,2.123,0,0,1,1.693.719A2.844,2.844,0,0,1,7.9-6.729v.337h-3.8v.051a1.747,1.747,0,0,0,.418,1.224,1.456,1.456,0,0,0,1.132.459,1.525,1.525,0,0,0,.852-.229A1.076,1.076,0,0,0,6.957-5.5ZM8.788-3.98v-5.3h.836v.847h.02a1.664,1.664,0,0,1,.658-.691,2.016,2.016,0,0,1,1.025-.247,1.751,1.751,0,0,1,1.351.523,2.022,2.022,0,0,1,.484,1.43V-3.98h-.887V-7.264a1.426,1.426,0,0,0-.306-.987,1.167,1.167,0,0,0-.913-.339,1.3,1.3,0,0,0-1,.408A1.529,1.529,0,0,0,9.675-7.1V-3.98Zm5.788-6.583h.887v1.28h1.03v.729h-1.03V-5.4a.765.765,0,0,0,.158.533.651.651,0,0,0,.5.171,2.271,2.271,0,0,0,.367-.025v.745a2.722,2.722,0,0,1-.561.041,1.392,1.392,0,0,1-1.04-.326,1.556,1.556,0,0,1-.311-1.091v-3.2h-.79v-.729h.79ZM17.345-7.82A1.363,1.363,0,0,1,17.9-8.939a2.234,2.234,0,0,1,1.425-.436,2.112,2.112,0,0,1,1.367.439,1.457,1.457,0,0,1,.576,1.112h-.847a.842.842,0,0,0-.344-.607,1.29,1.29,0,0,0-.783-.219,1.29,1.29,0,0,0-.78.217.673.673,0,0,0-.3.569q0,.541.882.765l.821.2a2.5,2.5,0,0,1,1.13.528,1.22,1.22,0,0,1,.329.91,1.356,1.356,0,0,1-.592,1.135,2.475,2.475,0,0,1-1.52.441,2.287,2.287,0,0,1-1.43-.431,1.577,1.577,0,0,1-.635-1.14h.887q.148.847,1.234.847a1.5,1.5,0,0,0,.849-.212.659.659,0,0,0,.314-.574.582.582,0,0,0-.186-.454,1.548,1.548,0,0,0-.63-.286l-.933-.24Q17.345-6.734,17.345-7.82Z" transform="translate(69.472 28.325)" opacity="0.5"/>
      <g id="Group_45719" data-name="Group 45719" transform="translate(53.115 2.177)">
        <path id="Polygon_9" data-name="Polygon 9" d="M3.264,0l.77,2.244H6.527L4.51,3.631l.77,2.244L3.264,4.488,1.247,5.875l.77-2.244L0,2.244H2.493Z" transform="translate(0 0)" fill="#ffb300"/>
        <path id="Polygon_10" data-name="Polygon 10" d="M3.264,0l.77,2.244H6.527L4.51,3.631l.77,2.244L3.264,4.488,1.247,5.875l.77-2.244L0,2.244H2.493Z" transform="translate(7.18 0)" fill="#ffb300"/>
        <path id="Polygon_11" data-name="Polygon 11" d="M3.264,0l.77,2.244H6.527L4.51,3.631l.77,2.244L3.264,4.488,1.247,5.875l.77-2.244L0,2.244H2.493Z" transform="translate(14.36 0)" fill="#ffb300"/>
        <path id="Polygon_12" data-name="Polygon 12" d="M3.264,0l.77,2.244H6.527L4.51,3.631l.77,2.244L3.264,4.488,1.247,5.875l.77-2.244L0,2.244H2.493Z" transform="translate(21.54 0)" fill="#ffb300"/>
        <path id="Polygon_13" data-name="Polygon 13" d="M2.937,0l.693,2.244H5.875L4.059,3.631l.693,2.244L2.937,4.488,1.122,5.875l.693-2.244L0,2.244H2.244Z" transform="translate(29.373 0)" fill="#ffb300"/>
      </g>
    </g>
  </g>
</svg>
