<svg xmlns="http://www.w3.org/2000/svg" width="41.313" height="40" viewBox="0 0 41.313 40">
  <g id="Group_53490" data-name="Group 53490" transform="translate(-510.053 -4223.803)">
    <g id="XMLID_4748_" transform="translate(510.053 4223.803)">
      <g id="XMLID_4745_" transform="translate(0.001 0)">
        <g id="XMLID_24_" transform="translate(0 0)">
          <path id="XMLID_28_" d="M103.419,125.6V108.619c0-.782.025-1.569,0-2.346v-.034a.75.75,0,0,0-.738-.738H92.838a.75.75,0,0,0-.738.738V124.35a24.3,24.3,0,0,0,.271,3.827,20.65,20.65,0,0,0,11.885,15.5,20.822,20.822,0,0,0,6.813,1.756,20.606,20.606,0,0,0,13.159-3.409,20.964,20.964,0,0,0,4.963-4.678,20.523,20.523,0,0,0,4.216-12.5v-18.6a.75.75,0,0,0-.738-.738h-9.843a.75.75,0,0,0-.738.738v19.3c0,.118,0,.236,0,.354-.01.3-.03.6-.064.89,0,.044-.03.2-.01.074-.01.069-.02.133-.03.2-.025.152-.054.31-.089.462a10.17,10.17,0,0,1-.487,1.614c-.015.039-.093.226-.039.1-.025.059-.054.118-.079.177-.059.128-.118.256-.182.384q-.192.376-.413.738c-.148.241-.3.472-.472.7-.02.025-.118.157-.079.1s-.064.079-.084.1c-.093.118-.192.231-.29.344a9.948,9.948,0,0,1-1.21,1.156c-.025.02-.157.123-.1.084s-.084.059-.1.079c-.113.084-.226.162-.344.241-.231.157-.472.3-.718.443s-.5.266-.753.384c-.059.025-.118.054-.177.079.123-.054-.059.025-.1.039q-.2.081-.4.148a10.34,10.34,0,0,1-1.677.423l-.2.03c.128-.02-.025,0-.074.01-.157.02-.315.034-.477.044-.266.02-.531.025-.792.025-.3,0-.6-.02-.89-.049-.079-.01-.157-.015-.236-.025-.148-.015.074.015-.074-.01s-.29-.044-.433-.074a9.609,9.609,0,0,1-1.653-.472l-.182-.074a.693.693,0,0,1-.089-.039c.01,0,.1.044.025.01-.138-.064-.275-.123-.413-.192-.251-.123-.5-.261-.743-.4s-.477-.3-.7-.462l-.157-.113c-.025-.02-.049-.039-.079-.059.01,0,.089.069.02.015l-.325-.266a10.336,10.336,0,0,1-1.176-1.19c-.039-.049-.084-.1-.123-.148l-.059-.074c-.069-.089.064.089,0,0-.084-.113-.167-.226-.246-.339-.162-.231-.31-.467-.453-.708s-.271-.492-.394-.748c-.03-.059-.054-.118-.084-.177-.02-.039-.079-.182-.03-.064-.059-.143-.113-.285-.167-.428a9.879,9.879,0,0,1-.438-1.633c-.015-.079-.025-.152-.039-.231,0-.044-.03-.2-.01-.074-.02-.133-.034-.271-.044-.4,0-.325-.02-.62-.02-.92a.738.738,0,1,0-1.476,0,10.973,10.973,0,0,0,2.435,6.833,10.773,10.773,0,0,0,5.923,3.7,10.97,10.97,0,0,0,7.256-.841,10.819,10.819,0,0,0,4.9-4.919,11.3,11.3,0,0,0,1.107-4.978v-19.17l-.738.738h9.843l-.738-.738v18.594c0,.339-.01.684-.025,1.023-.015.285-.034.571-.059.851-.015.138-.025.271-.039.4-.01.069-.015.133-.025.2,0,.034-.01.069-.015.1-.01.089.015-.1,0,.039a20.662,20.662,0,0,1-.748,3.276c-.167.521-.354,1.033-.566,1.54-.01.02-.059.148-.025.064s-.01.025-.015.034c-.025.059-.054.118-.079.177l-.177.384c-.113.246-.236.487-.359.728a19.878,19.878,0,0,1-1.741,2.76c-.044.059-.089.118-.138.182.074-.1-.015.02-.044.054-.089.108-.172.216-.261.325-.172.207-.344.413-.526.61-.364.408-.748.8-1.141,1.181s-.792.723-1.21,1.063l-.152.123c-.03.02-.2.152-.079.064-.113.084-.221.167-.335.251-.216.157-.438.315-.659.467a20.287,20.287,0,0,1-2.853,1.6c-.118.054-.236.108-.359.157-.029.015-.059.025-.089.039.128-.054.02-.01,0,0l-.212.089c-.256.1-.507.2-.767.29-.531.187-1.067.354-1.609.5s-1.082.261-1.628.354c-.133.025-.266.044-.4.064l-.2.03a.65.65,0,1,0-.069.01c.084-.01-.054,0-.069.01-.28.034-.561.064-.846.089a20.158,20.158,0,0,1-3.4-.01c-.28-.025-.561-.054-.846-.093.153.02-.069-.01-.1-.015l-.2-.029c-.143-.025-.285-.044-.433-.074-.546-.1-1.092-.216-1.628-.364s-1.077-.315-1.6-.5c-.256-.093-.512-.192-.762-.3-.034-.015-.216-.089-.153-.064s-.093-.039-.123-.054c-.128-.059-.261-.113-.389-.172a19.767,19.767,0,0,1-2.843-1.613c-.221-.153-.443-.31-.659-.467-.054-.039-.1-.079-.153-.118s-.069-.054-.1-.079c.01,0,.089.069.02.015-.108-.089-.221-.172-.33-.261-.418-.339-.817-.694-1.205-1.067s-.772-.772-1.136-1.185c-.177-.2-.349-.4-.521-.615-.084-.1-.162-.2-.241-.3-.015-.02-.084-.108,0,0-.02-.025-.039-.049-.059-.079-.044-.059-.089-.118-.138-.182a19.884,19.884,0,0,1-1.727-2.77c-.123-.241-.241-.487-.359-.733-.054-.118-.108-.236-.162-.359-.025-.059-.054-.118-.079-.182.059.133-.034-.089-.054-.123-.207-.507-.394-1.023-.556-1.545s-.315-1.082-.438-1.633c-.059-.271-.113-.546-.162-.822-.025-.133-.044-.266-.069-.4-.01-.069-.02-.133-.03-.2,0-.044-.039-.285-.02-.138a20.339,20.339,0,0,1-.167-2.622V106.218l-.738.738h9.843l-.738-.738V123.2c0,.782-.025,1.569,0,2.346v.034a.747.747,0,0,0,.738.738.726.726,0,0,0,.748-.718Z" transform="translate(-92.1 -105.5)"/>
        </g>
      </g>
      <g id="XMLID_5014_" transform="translate(29.992 5.75)">
        <g id="XMLID_18_" transform="translate(0 0)">
          <path id="XMLID_22_" d="M712.367,222.4h-9.843a.738.738,0,0,0,0,1.476h9.843a.738.738,0,1,0,0-1.476Z" transform="translate(-701.785 -222.4)"/>
        </g>
      </g>
      <g id="XMLID_5004_" transform="translate(0 5.75)">
        <g id="XMLID_14_" transform="translate(0 0)">
          <path id="XMLID_23_" d="M102.667,222.4H92.824a.738.738,0,0,0,0,1.476h9.843a.738.738,0,0,0,0-1.476Z" transform="translate(-92.085 -222.4)"/>
        </g>
      </g>
    </g>
  </g>
</svg>
