<svg width="122" height="23" viewBox="0 0 122 23" fill="none" xmlns="http://www.w3.org/2000/svg">
<path d="M11.2368 0L13.7597 7.76447L21.9237 7.76447L15.3189 12.5632L17.8417 20.3276L11.2368 15.5289L4.63199 20.3276L7.15482 12.5632L0.549971 7.76447L8.71401 7.76447L11.2368 0Z" fill="#FF9D00"/>
<path d="M36.1184 0L38.6413 7.76447L46.8053 7.76447L40.2005 12.5632L42.7233 20.3276L36.1184 15.5289L29.5136 20.3276L32.0364 12.5632L25.4316 7.76447L33.5956 7.76447L36.1184 0Z" fill="#FF9D00"/>
<path d="M61 0L63.5229 7.76447L71.6869 7.76447L65.082 12.5632L67.6049 20.3276L61 15.5289L54.3952 20.3276L56.918 12.5632L50.3132 7.76447L58.4772 7.76447L61 0Z" fill="#FF9D00"/>
<path d="M85.8816 0L88.4044 7.76447L96.5685 7.76447L89.9636 12.5632L92.4865 20.3276L85.8816 15.5289L79.2768 20.3276L81.7996 12.5632L75.1947 7.76447L83.3588 7.76447L85.8816 0Z" fill="#FF9D00"/>
<path d="M110.763 0L113.286 7.76447L121.45 7.76447L114.845 12.5632L117.368 20.3276L110.763 15.5289L104.158 20.3276L106.681 12.5632L100.076 7.76447L108.24 7.76447L110.763 0Z" fill="#FF9D00"/>
</svg>
