<svg id="huffpost" xmlns="http://www.w3.org/2000/svg" width="213.806" height="25" viewBox="0 0 213.806 25">
  <path id="Path_126873" data-name="Path 126873" d="M58.578,24.5h7.809L70.574.534H62.765L61.221,9.115h-6.77L56,.534H48.186L44,24.5h7.809l1.574-8.967h6.77ZM75,.5,72.622,13.836a15.311,15.311,0,0,0-.3,3c0,7.067,6.176,8.135,9.887,8.135,7.779,0,11.134-2.583,12.352-9.561L97.177.475H89.368L87.141,13c-.713,3.919-1.217,5.968-4.127,5.968-1.9,0-2.821-1.01-2.821-3.088a16.113,16.113,0,0,1,.356-3L82.806.475H75ZM138.448,24.5h7.809l1.1-6.176h3.682c6.8,0,10.57-3.682,10.57-10.392,0-4.721-3.266-7.423-9-7.423h-9.976Zm12.173-12.084h-2.257L149.4,6.77h2.108c1.722,0,2.643.861,2.643,2.435C154.154,11.194,152.818,12.411,150.621,12.411ZM176.779,0c-8.492,0-13.569,5.493-13.569,14.727C163.21,21.14,167.248,25,174.018,25c8.492,0,13.569-5.493,13.569-14.727C187.616,3.83,183.578,0,176.779,0Zm-2.286,18.795c-2.019,0-3.207-1.455-3.207-3.89a13.3,13.3,0,0,1,.267-2.643c.594-3.147,1.6-6.027,4.78-6.027,2.019,0,3.207,1.455,3.207,3.89a13.3,13.3,0,0,1-.267,2.643C178.679,15.885,177.67,18.795,174.493,18.795Zm40.261,5.7h7.809l3.088-17.548h5.879L232.658.534H212.676l-1.128,6.413h6.235ZM201.809,9.382c-2.464-.772-3.474-1.1-3.474-2.257,0-.772.5-1.692,1.989-1.692A2.493,2.493,0,0,1,202.7,6.977l6.888-1.871C208.786,1.722,205.876,0,200.859,0c-9.442,0-10.184,6.324-10.184,8.254,0,3.919,2.078,6.324,6.591,7.571,1.188.327,2.553.683,2.553,1.989,0,1.039-.772,1.692-2.108,1.692a3.152,3.152,0,0,1-2.969-1.96l-6.8,1.841c.742,3.563,4.1,5.582,9.353,5.582,4.008,0,10.719-1.069,10.719-8.314.03-3.622-2.019-6-6.205-7.274Z" transform="translate(-30.936 0)"/>
  <path id="Path_126874" data-name="Path 126874" d="M8.7,25.761,12.916,1.8H0V25.761ZM205.077,1.8l-4.186,23.961h12.916V1.8Z" transform="translate(0 -1.266)" fill="#0dbe98"/>
  <path id="Path_126875" data-name="Path 126875" d="M233.056,18.624h6.562l1.069-6.027h-6.562l.742-4.454h9.175L245.17,1.7H228.186L224,25.691h7.809Zm20.457,0H260.1l1.069-6.027h-6.562l.742-4.454h9.175L265.657,1.7H248.673l-4.186,23.991H252.3Z" transform="translate(-157.492 -1.195)"/>
</svg>
