<svg id="ELITE_DAILY" xmlns="http://www.w3.org/2000/svg" width="206.481" height="26" viewBox="0 0 206.481 26">
  <path id="E" d="M0,24.737c2.663-.118,3.255-.848,3.255-2.328V3C3.255,1.558,2.663.769,0,.671V0H18.188l.158,7.93-.75.039C15.821,3,14.716.927,10.889.927H7.338V11.9h1.4c2.407,0,3.551-.71,4.478-4.675h.71V17.478h-.71C12.29,13.513,11.146,12.8,8.739,12.8h-1.4V24.5H10.81c4.478,0,5.879-2.269,7.674-7.555l.769.039-.178,8.463H0Z" transform="translate(0 0.552)" fill="#231f20"/>
  <path id="L" d="M110.4,24.737c2.663-.118,3.255-.848,3.255-2.328V3c0-1.44-.592-2.229-3.255-2.328V0h10.514V.671c-2.781.118-3.176.848-3.176,2.328V24.52h2.249c4.36,0,5.859-1.7,7.891-7.634l.769.079-.3,8.483H110.4Z" transform="translate(-88.622 0.552)" fill="#231f20"/>
  <path id="I" d="M212.62,24.737c2.742-.118,3.334-.848,3.334-2.328V3c0-1.44-.592-2.229-3.334-2.328V0h10.672V.671c-2.742.1-3.314.888-3.314,2.328V22.41c0,1.48.552,2.229,3.294,2.328v.71H212.6v-.71Z" transform="translate(-170.661 0.552)" fill="#231f20"/>
  <path id="T" d="M287.2,24.737c2.821-.118,3.59-.848,3.59-2.328V.888h-1.1c-2.446,0-4,2.269-5.918,7.259L283,8.108,283.2,0h19.214l.217,8.108-.769.039c-1.815-4.774-3.373-7.259-5.918-7.259h-1.1V22.41c0,1.48.769,2.229,3.59,2.328v.71H287.2Z" transform="translate(-227.173 0.552)" fill="#231f20"/>
  <path id="E_1_" d="M397,24.737c2.663-.118,3.255-.848,3.255-2.328V3c0-1.44-.592-2.229-3.255-2.328V0h18.188l.158,7.93-.75.039C412.821,3,411.716.927,407.889.927h-3.551V11.9h1.4c2.407,0,3.551-.71,4.478-4.675h.71V17.478h-.71c-.927-3.965-2.071-4.675-4.478-4.675h-1.4V24.5h3.472c4.478,0,5.879-2.269,7.674-7.555l.769.039-.177,8.443H397v-.69Z" transform="translate(-318.684 0.552)" fill="#231f20"/>
  <path id="D" d="M.1,174.337c2.663-.118,3.255-.848,3.255-2.328V152.6c0-1.44-.592-2.229-3.255-2.328V149.6H9.727c7.989,0,11.954,5.228,11.954,12.29,0,6.786-3.413,13.138-11.56,13.138H.1Zm9.212-.217c5.958,0,7.891-2.959,7.891-11.954,0-9.114-2.663-11.659-7.97-11.659H7.419V174.14H9.312Z" transform="translate(108.812 -149.048)" fill="#231f20"/>
  <path id="A" d="M118.351,163.351H111.17l-1.065,3.373c-1.263,3.926-1.006,4.853,1.933,5.405v.671H104.7v-.671c2.19-.513,3.038-1.815,4.222-5.405l6.51-19.924h2.111l6.549,21.818c.75,2.486,1.263,3.117,3.669,3.511v.671H117.246v-.671c2.959-.178,3.373-.927,2.781-3.038Zm-.3-.927-3.038-10.771h-.158l-3.393,10.771Z" transform="translate(24.846 -146.8)" fill="#231f20"/>
  <path id="I_1_" d="M231.9,174.337c2.742-.118,3.334-.848,3.334-2.328V152.6c0-1.44-.592-2.229-3.334-2.328V149.6h10.672v.671c-2.742.118-3.294.888-3.294,2.328V172.01c0,1.479.552,2.229,3.294,2.328v.71H231.9Z" transform="translate(-77.261 -149.048)" fill="#231f20"/>
  <path id="L_1_" d="M304.7,174.337c2.663-.118,3.255-.848,3.255-2.328V152.6c0-1.44-.592-2.229-3.255-2.328V149.6h10.514v.671c-2.781.118-3.176.848-3.176,2.328V174.12h2.269c4.36,0,5.859-1.7,7.891-7.634l.769.079-.3,8.483H304.72v-.71Z" transform="translate(-135.7 -149.048)" fill="#231f20"/>
  <path id="Y" d="M399.037,154.709c1.479-3.038,1.341-3.926-1.519-4.478V149.6h7.437v.631c-2.071.454-3,1.223-4.636,4.478l-4.518,9.074v8.226c0,1.479.592,2.229,3.334,2.328v.71H388.463v-.71c2.781-.118,3.334-.848,3.334-2.328v-7.851l-5.445-11.146c-.927-1.933-1.48-2.367-3.452-2.781V149.6h10.258v.631c-2.92.256-3.176,1.144-2.328,2.86l4.379,9.449Z" transform="translate(-198.474 -149.048)" fill="#231f20"/>
</svg>
