<svg xmlns="http://www.w3.org/2000/svg" width="123.742" height="30" viewBox="0 0 123.742 30">
  <path id="thenextweb-ar21" d="M85.715,50.78H74.467V41.032a5.387,5.387,0,0,0-1.313-3.374l-4.311-4.311a5.4,5.4,0,0,0-3.374-1.313h-2.25V50.78H51.97v-30H68.281a8.786,8.786,0,0,1,6.561,2.815L82.9,31.656a8.8,8.8,0,0,1,2.815,6.561Zm48.745-30v9.748a5.387,5.387,0,0,1-1.313,3.374l-4.311,4.311a4.52,4.52,0,0,1-3.374,1.313h-4.685a9.5,9.5,0,0,0,2.437-6.187V20.78H111.965v9.748a5.387,5.387,0,0,1-1.313,3.374l-4.311,4.311a4.52,4.52,0,0,1-3.374,1.313h-2.255V20.78H89.463v30h16.311a8.785,8.785,0,0,0,6.561-2.815l5.25-5.25v8.061h10.689a8.785,8.785,0,0,0,6.561-2.815L142.9,39.9a8.8,8.8,0,0,0,2.815-6.561V20.78Zm-86.226,0H21.97V32.028h7.484V50.78H40.7V32.03h7.484" transform="translate(-21.97 -20.78)" fill="#f42"/>
</svg>
