<svg id="marketwatch-logo" xmlns="http://www.w3.org/2000/svg" width="202.371" height="29" viewBox="0 0 202.371 29">
  <path id="Path_126876" data-name="Path 126876" d="M30.927,14.667a5.1,5.1,0,0,1-4.845,4.189,3.3,3.3,0,0,1-3.3-4.112,5.058,5.058,0,0,1,4.807-4.189,3.243,3.243,0,0,1,3.34,4.112m1.544-8.108-.347,1.7A4.382,4.382,0,0,0,27.7,6.018a10.309,10.309,0,0,0-9.768,8.687c-.849,4.652,1.39,8.726,6.544,8.726a6.448,6.448,0,0,0,5.193-2.317l-.309,1.737H34.17L37.2,6.617h-4.73ZM40,6.578h4.537l-.309,1.7a5.077,5.077,0,0,1,4.556-2.259L47.9,10.9c-2.278,0-3.861.5-4.382,2.992l-1.66,8.919H36.969Z" transform="translate(16.524 5.564)" fill="#363333"/>
  <path id="Path_126877" data-name="Path 126877" d="M0,0H202.371V28.957H0Z" fill="none"/>
  <path id="Path_126878" data-name="Path 126878" d="M37.539,2.99,33.35,25.6h4.884l1.448-7.838h.077L42.886,25.6h5.5l-4.247-9.112,7.432-7.123H45.84l-5.618,5.888h-.077L42.423,2.99Z" transform="translate(31.031 2.782)" fill="#363333"/>
  <path id="Path_126879" data-name="Path 126879" d="M46.878,12.872a4.556,4.556,0,0,1,4.228-2.78,2.818,2.818,0,0,1,3.147,2.78ZM51.8,6a10.907,10.907,0,0,0-10.116,8.764,6.969,6.969,0,0,0,7.008,8.61,9.092,9.092,0,0,0,4.884-1.467,12.258,12.258,0,0,0,4.073-4.15H52.689a4.208,4.208,0,0,1-3.262,1.506A2.9,2.9,0,0,1,46.2,16.193H58.383a5.792,5.792,0,0,0,.347-1.274C59.658,9.861,56.762,6,51.8,6" transform="translate(38.603 5.583)" fill="#363333"/>
  <path id="Path_126880" data-name="Path 126880" d="M0,0H202.371V28.957H0Z" fill="none"/>
  <path id="Path_126881" data-name="Path 126881" d="M27.992,2.99,19.42,15.866h-.077V2.99h-4.15L0,25.6H5.888L14.421,12.72H14.5V25.6h4.189L27.22,12.72H27.3V25.6h4.884V2.99ZM109.67,9.361H106.6l.888-4.807h-4.266l-.347,1.93A3.359,3.359,0,0,1,99.38,9.438l-.734,3.591h2.413L98.724,25.6h4.845l2.336-12.567h3.108Z" transform="translate(0 2.782)" fill="#363333"/>
  <path id="Path_126882" data-name="Path 126882" d="M135.721,5.791h4.845l-1.467,8.05a5.077,5.077,0,0,1,4.652-2.259,4.961,4.961,0,0,1,4.112,1.815c1.042,1.583.927,3.031.386,5.927l-1.66,9.073h-4.845l1.622-8.842c.154-.772.618-3.417-1.93-3.417a3.417,3.417,0,0,0-3.378,3.166l-1.68,9.073h-4.768ZM115.3,12.143H112.3l.83-4.807h-4.266l-.425,1.853a3.359,3.359,0,0,1-3.494,2.954l-.656,3.668h2.394L104.37,28.378h4.845l2.317-12.567h3.108ZM91.919,24.42a5.1,5.1,0,0,0,4.942-4.189,3.243,3.243,0,0,0-3.34-4.112,5.058,5.058,0,0,0-4.807,4.189,3.3,3.3,0,0,0,3.3,4.112m8.185,3.861H95.3l.309-1.737a6.448,6.448,0,0,1-5.27,2.413c-5.154,0-7.413-4.073-6.544-8.726a10.309,10.309,0,0,1,9.749-8.648,4.382,4.382,0,0,1,4.344,2.278l.348-1.7h4.807ZM90.876,0,81.417,5.791H84.1L75.529,18.648V5.791H71.263L62.691,18.648V5.791H57.73V28.378h4.228l8.571-12.934V28.378h4.189L89.949,5.791h2.394Zm40.269,22.22a11,11,0,0,1-9.768,6.737,6.988,6.988,0,0,1-7.143-8.764,10.733,10.733,0,0,1,10.251-8.61,6.872,6.872,0,0,1,7.316,6.834h-4.923a2.876,2.876,0,0,0-3.108-2.3,4.73,4.73,0,0,0-4.614,4.112,3.147,3.147,0,0,0,3.108,4.15,4.633,4.633,0,0,0,3.861-2.162h5.019Z" transform="translate(53.716)" fill="#4db84d"/>
</svg>
